<mxfile host="app.diagrams.net" modified="2022-04-07T20:22:07.819Z" agent="5.0 (Windows NT 10.0; Win64; x64) AppleWebKit/537.36 (KHTML, like Gecko) Chrome/99.0.4844.82 Safari/537.36" etag="BIsa8ZwY_CzaGc6POQib" version="17.1.4" type="github">
  <diagram id="MGNirFVEope792cw_PuH" name="Page-1">
    <mxGraphModel dx="1138" dy="635" grid="1" gridSize="10" guides="1" tooltips="1" connect="1" arrows="1" fold="1" page="1" pageScale="1" pageWidth="850" pageHeight="1100" math="0" shadow="0">
      <root>
        <mxCell id="0" />
        <mxCell id="1" parent="0" />
        <mxCell id="hi-h6GFjjIwbvDmihTM5-6" value="OceanX" style="rounded=1;whiteSpace=wrap;html=1;points=[[0,0,0,0,0],[0,0.25,0,0,0],[0,0.5,0,0,0],[0,0.75,0,0,0],[0,1,0,0,0],[0.25,0,0,0,0],[0.25,1,0,0,0],[0.5,0,0,0,0],[0.5,1,0,0,0],[0.75,0,0,0,0],[0.75,1,0,0,0],[1,0,0,0,0],[1,0.11,0,0,0],[1,0.22,0,0,0],[1,0.25,0,0,0],[1,0.33,0,0,0],[1,0.44,0,0,0],[1,0.5,0,0,0],[1,0.56,0,0,0],[1,0.67,0,0,0],[1,0.75,0,0,0],[1,0.78,0,0,0],[1,0.89,0,0,0],[1,1,0,0,0]];fillColor=#dae8fc;strokeColor=#6c8ebf;" parent="1" vertex="1">
          <mxGeometry x="100" y="300" width="120" height="260" as="geometry" />
        </mxCell>
        <mxCell id="hi-h6GFjjIwbvDmihTM5-7" value="SCI" style="rounded=1;whiteSpace=wrap;html=1;points=[[0,0,0,0,0],[0,0.11,0,0,0],[0,0.22,0,0,0],[0,0.25,0,0,0],[0,0.33,0,0,0],[0,0.44,0,0,0],[0,0.5,0,0,0],[0,0.56,0,0,0],[0,0.67,0,0,0],[0,0.75,0,0,0],[0,0.78,0,0,0],[0,0.89,0,0,0],[0,1,0,0,0],[0.25,0,0,0,0],[0.25,1,0,0,0],[0.5,0,0,0,0],[0.5,1,0,0,0],[0.75,0,0,0,0],[0.75,1,0,0,0],[1,0,0,0,0],[1,0.11,0,0,0],[1,0.22,0,0,0],[1,0.25,0,0,0],[1,0.33,0,0,0],[1,0.44,0,0,0],[1,0.5,0,0,0],[1,0.56,0,0,0],[1,0.67,0,0,0],[1,0.75,0,0,0],[1,0.78,0,0,0],[1,0.89,0,0,0],[1,1,0,0,0]];fillColor=#fff2cc;strokeColor=#d6b656;" parent="1" vertex="1">
          <mxGeometry x="560" y="300" width="120" height="260" as="geometry" />
        </mxCell>
        <mxCell id="hi-h6GFjjIwbvDmihTM5-8" value="&lt;table class=&quot;NormalTable&quot;&gt;&lt;tbody&gt;&lt;tr&gt;&lt;td width=&quot;200&quot;&gt;&lt;span class=&quot;fontstyle0&quot;&gt;&amp;nbsp;POST - Post Material API&lt;/span&gt;&lt;/td&gt;&lt;/tr&gt;&lt;/tbody&gt;&lt;/table&gt;" style="endArrow=classic;html=1;rounded=0;exitX=1;exitY=0.11;exitDx=0;exitDy=0;exitPerimeter=0;entryX=0;entryY=0.11;entryDx=0;entryDy=0;entryPerimeter=0;" parent="1" source="hi-h6GFjjIwbvDmihTM5-6" target="hi-h6GFjjIwbvDmihTM5-7" edge="1">
          <mxGeometry width="50" height="50" relative="1" as="geometry">
            <mxPoint x="400" y="330" as="sourcePoint" />
            <mxPoint x="450" y="280" as="targetPoint" />
          </mxGeometry>
        </mxCell>
        <mxCell id="hi-h6GFjjIwbvDmihTM5-9" value="" style="endArrow=classic;html=1;rounded=0;exitX=1;exitY=0.33;exitDx=0;exitDy=0;exitPerimeter=0;entryX=0;entryY=0.33;entryDx=0;entryDy=0;entryPerimeter=0;" parent="1" source="hi-h6GFjjIwbvDmihTM5-6" target="hi-h6GFjjIwbvDmihTM5-7" edge="1">
          <mxGeometry width="50" height="50" relative="1" as="geometry">
            <mxPoint x="400" y="330" as="sourcePoint" />
            <mxPoint x="450" y="280" as="targetPoint" />
          </mxGeometry>
        </mxCell>
        <mxCell id="hi-h6GFjjIwbvDmihTM5-13" value="POST - Sales Order API" style="edgeLabel;html=1;align=center;verticalAlign=middle;resizable=0;points=[];" parent="hi-h6GFjjIwbvDmihTM5-9" vertex="1" connectable="0">
          <mxGeometry x="-0.1235" y="-1" relative="1" as="geometry">
            <mxPoint x="21" as="offset" />
          </mxGeometry>
        </mxCell>
        <mxCell id="hi-h6GFjjIwbvDmihTM5-10" value="" style="endArrow=classic;html=1;rounded=0;exitX=0;exitY=0.44;exitDx=0;exitDy=0;exitPerimeter=0;entryX=1;entryY=0.44;entryDx=0;entryDy=0;entryPerimeter=0;" parent="1" source="hi-h6GFjjIwbvDmihTM5-7" target="hi-h6GFjjIwbvDmihTM5-6" edge="1">
          <mxGeometry width="50" height="50" relative="1" as="geometry">
            <mxPoint x="400" y="330" as="sourcePoint" />
            <mxPoint x="450" y="280" as="targetPoint" />
          </mxGeometry>
        </mxCell>
        <mxCell id="hi-h6GFjjIwbvDmihTM5-14" value="FILE - Ship Confirmations" style="edgeLabel;html=1;align=center;verticalAlign=middle;resizable=0;points=[];" parent="hi-h6GFjjIwbvDmihTM5-10" vertex="1" connectable="0">
          <mxGeometry x="0.0882" y="1" relative="1" as="geometry">
            <mxPoint as="offset" />
          </mxGeometry>
        </mxCell>
        <mxCell id="hi-h6GFjjIwbvDmihTM5-12" value="&lt;table class=&quot;NormalTable&quot;&gt;&lt;tbody&gt;&lt;tr&gt;&lt;td width=&quot;200&quot;&gt;&lt;span class=&quot;fontstyle0&quot;&gt;GET - Balance On Hand API&lt;/span&gt;&lt;/td&gt;&lt;/tr&gt;&lt;/tbody&gt;&lt;/table&gt;" style="endArrow=classic;html=1;rounded=0;exitX=1;exitY=0.22;exitDx=0;exitDy=0;exitPerimeter=0;entryX=0;entryY=0.22;entryDx=0;entryDy=0;entryPerimeter=0;" parent="1" source="hi-h6GFjjIwbvDmihTM5-6" target="hi-h6GFjjIwbvDmihTM5-7" edge="1">
          <mxGeometry width="50" height="50" relative="1" as="geometry">
            <mxPoint x="230" y="160.60000000000002" as="sourcePoint" />
            <mxPoint x="570" y="160.60000000000002" as="targetPoint" />
            <mxPoint as="offset" />
          </mxGeometry>
        </mxCell>
        <mxCell id="hi-h6GFjjIwbvDmihTM5-15" value="" style="endArrow=classic;html=1;rounded=0;exitX=0;exitY=0.56;exitDx=0;exitDy=0;exitPerimeter=0;entryX=1;entryY=0.56;entryDx=0;entryDy=0;entryPerimeter=0;" parent="1" source="hi-h6GFjjIwbvDmihTM5-7" target="hi-h6GFjjIwbvDmihTM5-6" edge="1">
          <mxGeometry width="50" height="50" relative="1" as="geometry">
            <mxPoint x="570" y="312.4000000000001" as="sourcePoint" />
            <mxPoint x="230" y="312.4000000000001" as="targetPoint" />
          </mxGeometry>
        </mxCell>
        <mxCell id="hi-h6GFjjIwbvDmihTM5-16" value="FILE - Inventory Adjustments" style="edgeLabel;html=1;align=center;verticalAlign=middle;resizable=0;points=[];" parent="hi-h6GFjjIwbvDmihTM5-15" vertex="1" connectable="0">
          <mxGeometry x="0.0882" y="1" relative="1" as="geometry">
            <mxPoint as="offset" />
          </mxGeometry>
        </mxCell>
        <mxCell id="sN9Ar6Se1gokxchu2inU-1" style="edgeStyle=orthogonalEdgeStyle;rounded=0;orthogonalLoop=1;jettySize=auto;html=1;exitX=0.5;exitY=1;exitDx=0;exitDy=0;exitPerimeter=0;" edge="1" parent="1" source="hi-h6GFjjIwbvDmihTM5-7" target="hi-h6GFjjIwbvDmihTM5-7">
          <mxGeometry relative="1" as="geometry" />
        </mxCell>
      </root>
    </mxGraphModel>
  </diagram>
</mxfile>
